<?xml version="1.0" ?><!DOCTYPE svg  PUBLIC '-//W3C//DTD SVG 1.1//EN'  'http://www.w3.org/Graphics/SVG/1.1/DTD/svg11.dtd'><svg enable-background="new 0 0 512 512" height="512px" id="Lightroom_1_" version="1.1" viewBox="0 0 512 512" width="512px" xml:space="preserve" xmlns="http://www.w3.org/2000/svg" xmlns:xlink="http://www.w3.org/1999/xlink"><g id="Frame_14_"><g><rect fill="#9CC6D4" height="486.004" width="499.004" x="6.998" y="11.998"/></g></g><g id="Background_14_"><g><rect fill="#293243" height="407.969" width="421.987" x="45.008" y="51.016"/></g></g><g id="Shadow2_14_" opacity="0.302"><g><polygon points="359,210 333,229 314,212 295,243 185,154 154,159 151,360 285,459 467,459 467,287   "/></g></g><g id="Shadow_15_" opacity="0.302"><g><rect height="13.998" width="421.987" x="45.008" y="51.001"/></g></g><g id="Lr"><g><path d="M151.022,153.999h33.818v174.438h76.161v31.466H151.022V153.999z" fill="#9CC6D4"/><path d="M285.195,259.09c0-20.163-0.274-34.521-1.1-47.963h29.419l1.101,28.411h1.1    c6.599-21.079,22.271-31.771,36.568-31.771c3.299,0,5.224,0.306,7.973,0.917v35.438c-2.749-0.611-5.773-1.222-9.897-1.222    c-16.223,0-27.22,11.609-30.244,28.411c-0.551,3.36-1.101,7.332-1.101,11.608v76.985h-33.818V259.09z" fill="#9CC6D4"/></g></g></svg>